<?xml version="1.0" encoding="utf-8"?>
<svg xmlns="http://www.w3.org/2000/svg" version="1.1" x="0px" y="0px" viewBox="0 0 64 80" style="enable-background:new 0 0 64 64;">
  <g transform="matrix(1, 0, 0, 1, -2.428571, 9.285714)">
    <g>
      <path d="M42,24c3.309,0,6-2.691,6-6s-2.691-6-6-6c-3.309,0-6,2.691-6,6S38.691,24,42,24z M42,16c1.102,0,2,0.897,2,2s-0.898,2-2,2    c-1.103,0-2-0.897-2-2S40.897,16,42,16z" style="fill: rgb(250, 250, 250);"/>
      <path d="M50,26c-1.105,0-2,0.896-2,2c0,3.379-0.685,4.835-1.271,5.056c-1.603,0.608-6.155-2.872-9.225-6.374    c-0.034-0.04-0.075-0.07-0.112-0.106c-0.026-0.025-0.052-0.05-0.078-0.074c-0.124-0.108-0.254-0.204-0.396-0.276    c-0.007-0.003-0.011-0.009-0.018-0.012c-0.38-0.193-8.03-4.217-10.28-14.38C27.064,11.939,27.524,12,28,12c3.309,0,6-2.691,6-6    s-2.691-6-6-6c-3.309,0-6,2.691-6,6c0,14.229,8.765,21.096,11.969,23.129C33.066,45.447,13.03,60.232,12.823,60.383    c-0.893,0.65-1.09,1.901-0.439,2.794c0.392,0.538,1,0.823,1.618,0.823c0.408,0,0.819-0.125,1.175-0.382    c0.571-0.416,9.013-6.644,15.465-15.729c0.021-0.007,0.041-0.009,0.061-0.016c5.117-1.919,11.641-3.251,13.194-2.174    C43.963,45.745,44,45.77,44,46c0,3.959-6.688,8.875-9.03,10.286c-0.946,0.569-1.252,1.798-0.684,2.744    C34.661,59.654,35.323,60,36.002,60c0.35,0,0.705-0.092,1.027-0.285C38.152,59.041,48,52.932,48,46    c0-1.499-0.648-2.773-1.825-3.589c-2.705-1.877-8.113-0.936-12.247,0.211c1.71-3.183,3.028-6.599,3.658-10.155    c2.462,2.24,5.799,4.641,8.803,4.641c0.599,0,1.184-0.095,1.747-0.307C52,35.349,52,29.817,52,28C52,26.896,51.104,26,50,26z     M28,4c1.102,0,2,0.897,2,2s-0.898,2-2,2c-1.103,0-2-0.897-2-2S26.897,4,28,4z" style="fill: rgb(250, 250, 250);"/>
    </g>
  </g>
</svg>